<?xml version="1.0" standalone="no"?>
<!DOCTYPE svg PUBLIC "-//W3C//DTD SVG 20010904//EN"
 "http://www.w3.org/TR/2001/REC-SVG-20010904/DTD/svg10.dtd">
<svg version="1.0" xmlns="http://www.w3.org/2000/svg"
 width="2000.000000pt" height="1673.000000pt" viewBox="0 0 2000.000000 1673.000000"
 preserveAspectRatio="xMidYMid meet">

<g transform="translate(0.000000,1673.000000) scale(0.100000,-0.100000)"
fill="#000000" stroke="none">
<path d="M9734 15403 c-21 -19 -47 -41 -56 -47 -53 -38 -358 -352 -358 -370 0
-2 -14 -19 -31 -37 -45 -48 -187 -249 -262 -370 -62 -101 -151 -258 -152 -269
-1 -3 -22 -46 -47 -96 -55 -107 -138 -302 -168 -394 -11 -36 -23 -71 -25 -78
-4 -10 -20 -1 -54 27 -27 23 -52 41 -56 41 -4 0 -18 10 -30 23 -32 32 -105 91
-119 96 -6 2 -21 13 -33 24 -12 11 -31 25 -42 31 -10 6 -34 23 -52 38 -82 65
-319 206 -484 289 -99 50 -187 91 -195 93 -8 2 -41 15 -72 29 -32 15 -69 29
-84 31 -14 3 -32 10 -40 17 -8 6 -14 8 -14 4 0 -4 -6 -3 -12 2 -12 9 -70 31
-101 37 -7 2 -19 6 -27 9 -46 18 -153 46 -160 42 -5 -3 -11 -1 -15 5 -4 6 -11
8 -16 5 -5 -4 -15 -3 -21 2 -7 4 -15 8 -18 8 -3 1 -18 4 -35 8 -16 4 -46 10
-65 13 -19 3 -46 7 -60 10 -64 11 -61 15 -97 -86 -19 -52 -35 -102 -37 -110
-2 -8 -6 -22 -9 -30 -3 -8 -15 -49 -26 -90 -18 -67 -24 -94 -36 -165 -2 -11
-4 -20 -5 -20 -2 0 -4 -9 -6 -20 -1 -11 -6 -38 -9 -60 -4 -22 -8 -49 -9 -60
-2 -11 -6 -31 -10 -45 -4 -14 -9 -50 -11 -80 -3 -30 -9 -86 -13 -125 -9 -86
-9 -606 0 -695 3 -36 9 -99 13 -140 4 -41 11 -85 16 -98 5 -13 7 -27 5 -31 -2
-3 0 -29 5 -56 6 -28 12 -65 15 -83 2 -18 5 -38 7 -45 1 -7 -3 -11 -10 -10 -7
2 -27 5 -45 7 -18 2 -40 7 -48 10 -8 3 -42 8 -75 11 -33 4 -71 8 -85 11 -32 5
-99 13 -170 20 -30 3 -177 8 -326 11 -245 4 -302 2 -509 -22 -64 -7 -156 -21
-195 -29 -14 -2 -47 -8 -75 -12 -71 -9 -312 -76 -425 -117 -78 -28 -94 -38
-92 -53 2 -10 5 -30 7 -44 2 -14 6 -36 9 -50 3 -14 10 -45 14 -70 5 -25 12
-52 16 -60 3 -8 8 -28 10 -45 6 -40 31 -131 56 -202 11 -32 23 -69 26 -82 3
-13 10 -34 17 -45 6 -12 12 -24 13 -28 1 -5 2 -9 4 -10 1 -2 3 -11 5 -21 11
-57 193 -432 249 -514 19 -28 33 -52 31 -55 -9 -9 253 -385 332 -476 15 -18
39 -46 53 -64 53 -66 105 -125 161 -183 32 -33 87 -89 121 -125 75 -77 234
-223 269 -247 13 -9 30 -25 37 -35 7 -10 20 -18 28 -18 8 0 17 -6 20 -14 5
-14 109 -95 264 -207 117 -85 312 -208 461 -292 134 -75 396 -206 421 -211 7
-1 27 -10 44 -19 46 -24 305 -124 347 -133 4 -1 9 -3 12 -4 3 -1 10 -4 15 -5
6 -1 12 -4 15 -5 3 -1 10 -4 15 -5 6 -1 12 -4 15 -5 3 -1 8 -3 13 -4 4 -1 45
-15 92 -30 88 -28 339 -92 400 -102 19 -3 45 -7 57 -9 12 -2 26 -6 30 -8 5 -3
35 -8 67 -11 31 -3 61 -8 65 -10 4 -3 36 -8 71 -11 36 -4 79 -9 95 -11 281
-33 609 -38 815 -12 114 14 126 20 55 29 -71 9 -100 14 -140 22 -16 4 -50 9
-75 13 -44 5 -63 8 -117 20 -16 3 -35 6 -43 8 -9 1 -21 6 -28 10 -7 4 -16 5
-19 2 -3 -3 -14 -1 -23 4 -10 5 -37 12 -59 15 -23 3 -51 10 -62 16 -12 6 -23
8 -26 6 -2 -3 -28 3 -57 13 -29 11 -65 21 -79 24 -15 2 -30 7 -35 10 -5 3 -19
7 -33 10 -25 5 -249 86 -380 136 -69 26 -190 77 -279 117 -67 31 -246 120
-315 159 -38 21 -91 50 -117 64 -169 91 -559 351 -714 478 -12 9 -36 28 -54
42 -17 14 -44 36 -59 50 -15 14 -70 62 -122 107 -497 431 -903 1004 -1080
1522 -16 47 -29 88 -29 91 0 7 70 31 105 36 57 8 102 15 123 20 12 2 48 7 80
9 31 3 80 7 107 10 58 7 426 7 500 0 113 -9 162 -14 205 -20 93 -13 115 -16
130 -19 86 -17 88 -18 95 -44 3 -15 21 -63 40 -107 18 -44 47 -116 65 -160 18
-44 53 -120 78 -170 25 -49 46 -92 47 -95 4 -17 38 -86 75 -150 23 -41 58
-104 78 -140 44 -82 232 -370 241 -370 3 0 12 -12 19 -27 17 -38 192 -261 302
-386 147 -167 425 -442 475 -469 7 -5 29 -22 47 -39 18 -17 42 -39 53 -48 32
-29 221 -169 253 -188 16 -10 56 -36 88 -59 124 -86 381 -229 489 -272 28 -11
68 -28 90 -37 48 -20 48 -21 -40 45 -38 29 -72 56 -75 60 -3 4 -34 31 -70 60
-36 30 -88 74 -115 99 -28 25 -64 58 -80 72 -54 47 -339 345 -389 408 -28 33
-53 61 -58 61 -4 0 -8 5 -8 10 0 6 -33 52 -73 103 -70 87 -210 278 -232 315
-6 9 -32 51 -60 92 -27 41 -55 86 -62 99 -40 73 -129 217 -138 223 -5 4 -7 8
-3 8 3 0 -19 46 -49 103 -30 56 -65 125 -78 152 -12 28 -45 97 -72 155 -28 58
-65 143 -83 190 -18 47 -37 89 -42 95 -4 5 -8 15 -8 23 0 8 -6 28 -14 45 -8
18 -22 57 -31 87 -10 30 -22 61 -28 68 -5 6 -6 12 -2 12 4 0 3 6 -3 13 -6 6
-10 14 -11 17 0 3 -2 12 -4 20 -10 31 -48 166 -52 180 -2 8 -4 15 -5 15 -1 0
-3 7 -5 15 -2 8 -7 26 -10 40 -3 14 -8 36 -11 50 -3 14 -8 34 -11 45 -8 23
-13 42 -18 70 -2 11 -7 31 -10 45 -3 14 -8 34 -10 45 -2 11 -6 32 -9 47 -7 31
-14 76 -21 128 -3 19 -8 51 -11 70 -4 19 -8 46 -9 60 -5 67 -17 191 -24 245
-8 65 -5 352 4 450 3 33 8 85 11 115 5 61 9 91 18 135 3 17 8 48 11 70 4 32
16 68 31 93 1 2 50 -13 109 -33 181 -62 345 -140 574 -275 135 -79 417 -288
463 -341 13 -15 15 -26 8 -45 -6 -14 -12 -50 -15 -81 -3 -31 -8 -59 -10 -63
-3 -4 -7 -36 -10 -71 -3 -35 -8 -84 -11 -109 -3 -25 -7 -63 -9 -85 -35 -327
-19 -926 31 -1225 8 -47 17 -103 20 -125 3 -21 8 -43 11 -48 3 -4 9 -34 14
-65 5 -31 11 -72 14 -91 3 -18 10 -42 16 -52 5 -10 8 -19 5 -19 -4 0 7 -42 49
-192 3 -10 7 -28 10 -40 5 -22 32 -112 42 -138 3 -8 7 -19 9 -25 2 -9 25 -71
58 -162 7 -18 15 -36 19 -39 4 -4 7 -13 7 -20 0 -8 12 -39 26 -71 15 -32 28
-64 30 -72 11 -55 229 -461 308 -575 23 -32 48 -69 56 -81 39 -57 93 -125 96
-122 2 2 -7 30 -20 63 -13 32 -41 106 -62 164 -20 58 -42 111 -47 118 -5 6 -7
12 -4 12 4 0 -9 44 -27 98 -30 86 -44 133 -52 168 -1 7 -16 67 -32 135 -30
122 -49 213 -78 379 -8 47 -17 99 -20 115 -3 17 -8 48 -10 70 -3 22 -7 58 -10
80 -2 22 -7 87 -10 145 -2 58 -7 112 -10 120 -13 34 -15 484 -4 673 7 111 14
225 15 252 1 28 5 64 8 80 4 17 9 57 12 90 7 69 10 89 24 165 6 30 13 80 17
110 3 30 8 59 11 64 4 5 8 20 10 33 1 12 5 35 8 51 3 15 7 34 9 42 1 8 5 24 9
35 3 11 8 31 11 45 3 14 7 35 10 48 4 12 8 31 10 42 3 11 7 24 10 28 3 5 7 19
10 33 10 48 14 64 25 92 6 15 13 38 15 50 6 31 59 178 123 342 57 145 162 362
239 492 24 41 44 77 44 79 0 17 204 286 270 357 30 32 56 63 58 67 4 10 129
-137 214 -251 149 -198 327 -529 424 -789 13 -36 28 -74 33 -85 5 -11 21 -58
36 -105 14 -47 29 -92 32 -100 4 -8 7 -18 8 -22 2 -5 3 -9 5 -10 1 -3 3 -9 14
-53 2 -11 21 -83 41 -160 20 -77 39 -150 41 -162 7 -40 13 -72 18 -96 3 -12 7
-38 10 -57 3 -19 9 -46 12 -60 3 -14 7 -36 9 -50 2 -14 6 -41 10 -60 5 -32 12
-81 19 -155 2 -16 7 -59 11 -95 8 -73 9 -84 20 -260 10 -160 10 -447 0 -620
-4 -74 -9 -155 -10 -180 -1 -25 -7 -82 -14 -126 -6 -45 -11 -86 -10 -90 1 -5
-1 -25 -5 -44 -4 -19 -9 -55 -12 -80 -6 -53 -9 -73 -18 -120 -3 -19 -8 -47
-10 -63 -3 -15 -7 -35 -10 -45 -3 -9 -7 -33 -10 -52 -8 -51 -14 -79 -19 -88
-3 -4 -8 -29 -11 -56 -4 -27 -11 -56 -15 -65 -5 -9 -12 -34 -16 -56 -9 -45
-12 -54 -15 -57 -1 -3 -6 -21 -13 -50 -1 -7 -5 -17 -9 -23 -4 -8 -16 -52 -23
-85 0 -3 -12 -36 -25 -75 -13 -38 -25 -72 -25 -75 -1 -3 -7 -18 -13 -33 -7
-16 -12 -32 -12 -36 0 -4 -7 -22 -16 -40 -9 -17 -17 -37 -18 -44 -2 -7 -7 -23
-13 -37 -30 -71 -52 -134 -50 -136 7 -7 140 181 207 291 103 168 245 451 297
589 8 23 21 55 28 71 7 17 30 80 50 140 20 61 40 117 44 125 5 9 12 31 17 50
4 19 8 37 9 40 1 3 11 37 22 75 24 79 59 224 66 272 3 17 7 36 10 40 3 5 8 31
12 58 3 28 8 61 11 75 3 14 6 34 8 45 2 11 6 34 10 52 4 18 9 51 11 75 3 24
12 99 21 168 21 160 25 860 5 1015 -23 184 -29 235 -35 265 -7 38 -17 101 -20
135 -4 37 16 63 96 123 32 23 65 50 75 60 10 10 30 24 44 31 15 7 37 23 51 35
13 13 28 25 33 27 6 2 56 34 113 72 56 37 105 67 108 67 3 0 18 8 32 19 48 33
305 158 392 190 47 18 94 36 105 40 30 13 106 33 110 29 5 -4 14 -51 21 -98 2
-19 7 -43 10 -53 8 -27 17 -84 30 -202 15 -135 8 -611 -10 -697 -3 -13 -8 -48
-11 -78 -7 -68 -11 -100 -19 -137 -5 -26 -12 -63 -23 -123 -7 -42 -12 -63 -27
-126 -8 -34 -17 -72 -20 -85 -11 -55 -15 -69 -20 -77 -3 -5 -7 -19 -10 -33 -2
-13 -11 -43 -20 -67 -8 -23 -15 -45 -15 -47 1 -7 -50 -172 -61 -200 -5 -11
-25 -65 -45 -120 -20 -55 -46 -118 -56 -141 -10 -22 -19 -44 -19 -49 0 -32
-261 -550 -358 -710 -185 -308 -331 -512 -532 -748 -41 -49 -88 -105 -105
-125 -36 -45 -224 -233 -320 -322 -116 -107 -241 -212 -369 -309 -18 -13 -22
-20 -11 -16 11 4 38 14 60 22 22 8 55 24 73 35 17 11 32 17 32 14 0 -11 230
117 353 196 23 15 65 40 93 57 28 16 66 43 85 60 18 17 39 31 45 31 6 0 17 7
24 15 7 9 45 37 83 63 38 25 75 54 81 64 6 10 15 18 20 18 8 0 65 48 176 148
128 115 263 250 342 342 50 58 107 124 127 147 41 47 35 40 130 159 39 49 71
94 71 100 0 6 11 21 25 34 14 13 25 29 25 37 0 7 4 13 8 13 9 0 81 107 166
247 62 102 73 121 136 238 23 44 47 86 53 93 5 6 6 12 3 12 -4 0 1 12 12 28
11 15 37 65 57 112 21 47 55 121 75 165 20 44 54 127 75 185 39 107 52 133 64
126 3 -2 29 0 56 6 53 11 88 16 145 22 19 2 60 7 90 10 109 13 168 16 355 17
268 0 447 -17 620 -59 6 -2 20 -5 32 -8 l21 -6 -28 -81 c-41 -121 -96 -257
-130 -321 -17 -31 -27 -56 -24 -56 4 0 0 -8 -9 -17 -8 -10 -16 -21 -17 -25 -1
-11 -30 -61 -89 -156 -29 -48 -56 -94 -59 -102 -3 -8 -8 -17 -12 -20 -3 -3
-38 -50 -77 -105 -91 -128 -159 -216 -200 -259 -13 -13 -23 -25 -23 -28 0 -7
-139 -156 -221 -238 -286 -282 -510 -465 -824 -673 -82 -54 -169 -112 -193
-128 -23 -16 -45 -29 -47 -29 -3 0 -56 -29 -118 -64 -110 -62 -429 -226 -441
-226 -3 0 -41 -16 -83 -36 -43 -20 -132 -56 -198 -81 -66 -25 -124 -48 -130
-51 -5 -4 -18 -8 -27 -9 -9 -2 -45 -14 -80 -27 -35 -13 -92 -32 -128 -42 -36
-9 -69 -20 -75 -23 -5 -3 -16 -7 -22 -8 -7 -2 -19 -4 -25 -6 -7 -1 -19 -6 -25
-10 -7 -5 -13 -6 -13 -3 0 2 -15 0 -32 -5 -18 -6 -49 -13 -68 -16 -19 -3 -40
-9 -46 -14 -6 -5 -14 -6 -17 -2 -4 3 -12 1 -19 -4 -7 -6 -20 -11 -28 -11 -8
-1 -26 -3 -40 -6 -14 -3 -41 -7 -60 -10 -19 -3 -59 -11 -89 -17 -30 -6 -66
-13 -80 -15 -14 -2 -44 -7 -66 -10 -56 -9 -86 -12 -112 -13 -34 -1 -28 -18 9
-25 42 -8 288 -21 408 -21 102 0 346 12 395 20 17 2 63 7 104 10 41 3 78 8 83
11 5 4 26 8 46 9 20 2 53 6 72 10 60 11 84 15 110 19 46 7 116 23 145 32 6 2
34 8 63 13 62 11 228 58 253 71 9 5 28 11 44 14 41 8 189 57 199 67 6 5 17 9
25 9 12 0 200 74 285 112 130 58 412 204 524 270 166 98 332 208 332 220 0 4
6 8 13 8 20 0 157 103 347 261 194 162 413 380 545 543 17 21 39 47 51 59 38
40 135 167 127 167 -4 0 -3 4 4 8 17 11 113 145 113 158 0 7 5 14 10 16 20 6
172 266 255 433 87 177 169 379 205 506 12 41 25 90 31 109 5 19 11 40 13 45
18 64 28 101 31 123 2 15 7 38 10 52 30 128 27 143 -28 162 -186 65 -387 121
-477 134 -25 3 -56 8 -70 11 -14 2 -36 6 -50 8 -14 2 -43 6 -65 10 -85 13
-172 23 -280 30 -99 6 -514 7 -524 1 -4 -3 -43 -8 -87 -11 -95 -7 -134 -11
-194 -20 -49 -8 -69 -11 -144 -20 -27 -4 -60 -11 -72 -16 -30 -11 -58 -1 -45
15 6 7 10 21 10 31 -1 11 2 36 6 55 3 19 8 47 9 61 2 15 6 35 10 45 3 11 8 51
12 89 3 39 8 84 10 100 32 274 23 713 -21 975 -2 14 -7 45 -10 70 -3 25 -11
63 -16 85 -5 22 -12 55 -15 74 -2 19 -7 38 -10 43 -3 4 -7 21 -10 36 -3 15
-12 52 -21 82 -9 30 -17 60 -19 67 -7 35 -66 202 -77 216 -11 15 -18 15 -82 1
-38 -9 -78 -17 -88 -19 -10 -2 -26 -6 -35 -9 -9 -3 -35 -8 -57 -12 -22 -3 -43
-8 -48 -11 -4 -2 -19 -6 -33 -9 -52 -9 -352 -113 -459 -159 -329 -140 -773
-420 -1001 -632 -55 -51 -58 -49 -88 40 -60 178 -184 449 -294 642 -65 113
-166 267 -185 284 -9 7 -17 19 -17 26 0 7 -11 24 -25 39 -14 15 -25 30 -25 33
0 5 -48 68 -87 113 -7 8 -27 33 -45 54 -142 169 -364 386 -433 423 -20 11 -26
8 -61 -24z"/>
<path d="M4858 7853 c6 -2 18 -2 25 0 6 3 1 5 -13 5 -14 0 -19 -2 -12 -5z"/>
<path d="M6285 7853 c-506 -60 -857 -147 -972 -240 -92 -75 28 -168 306 -237
986 -248 3692 -361 6021 -251 1164 55 2063 162 2436 289 411 140 195 292 -581
410 -88 13 -191 26 -230 29 l-70 5 50 -13 c257 -68 338 -110 320 -164 -18 -57
-257 -128 -600 -180 -975 -148 -3040 -207 -4710 -136 -1258 54 -2109 168
-2241 300 -20 20 -23 29 -14 45 21 39 121 83 300 129 68 18 63 24 -15 14z"/>
<path d="M7065 7839 c-357 -47 -493 -96 -426 -150 170 -138 1894 -235 3713
-208 1388 19 2329 92 2556 196 45 21 44 55 -3 77 -79 38 -496 108 -623 105
l-47 -1 40 -8 c86 -18 160 -46 163 -62 7 -34 -133 -67 -414 -97 -1093 -118
-3592 -113 -4569 9 -211 26 -328 57 -328 85 0 15 47 35 127 56 l71 17 -60 0
c-33 0 -123 -8 -200 -19z"/>
<path d="M14685 7855 c6 -3 79 -23 163 -45 257 -68 391 -131 419 -198 13 -30
12 -36 -6 -65 -108 -175 -991 -341 -2361 -442 -970 -72 -1831 -99 -3115 -99
-965 0 -1366 7 -2085 39 -1859 83 -3130 261 -3373 474 -71 63 -42 123 91 190
52 26 159 62 357 120 l70 21 -80 -6 c-106 -7 -509 -74 -715 -119 -341 -73
-585 -155 -697 -233 -68 -48 -93 -85 -93 -138 0 -69 109 -152 287 -219 526
-199 1806 -371 3418 -460 953 -52 1643 -69 2820 -69 1142 0 1682 12 2620 59
2260 114 3810 378 3896 663 38 129 -153 242 -607 355 -190 48 -464 101 -734
141 -163 25 -294 39 -275 31z"/>
<path d="M2559 5825 c-192 -60 -254 -427 -103 -604 56 -65 104 -86 199 -86 86
0 145 20 212 71 l33 25 0 140 0 139 -125 0 -125 0 0 -60 0 -60 66 0 65 0 -3
-47 c-3 -46 -5 -49 -48 -71 -98 -51 -194 -6 -227 107 -10 37 -14 79 -11 135 7
130 52 193 143 204 58 6 98 -17 125 -73 16 -32 27 -44 39 -41 9 2 33 7 54 11
20 3 37 10 37 15 0 5 -9 34 -21 64 -45 121 -170 173 -310 131z"/>
<path d="M4838 5831 c-79 -26 -139 -90 -173 -186 -13 -36 -18 -80 -18 -160 0
-164 44 -265 141 -322 41 -24 57 -28 127 -28 94 0 144 22 194 82 56 67 74 133
75 263 1 171 -40 267 -139 326 -50 29 -155 42 -207 25z m153 -134 c58 -38 74
-85 74 -212 0 -99 -3 -114 -25 -154 -75 -132 -237 -93 -270 65 -17 82 -8 183
21 240 41 80 131 108 200 61z"/>
<path d="M6134 5824 c-56 -20 -111 -76 -143 -143 -24 -52 -26 -66 -26 -196 0
-130 2 -144 26 -196 52 -111 145 -167 259 -156 103 9 168 58 217 162 26 56 28
68 28 190 0 122 -2 134 -28 190 -33 71 -67 109 -122 137 -52 27 -155 33 -211
12z m167 -127 c19 -12 44 -42 57 -67 21 -40 23 -56 20 -155 -4 -124 -18 -163
-78 -202 -70 -48 -155 -18 -199 71 -20 39 -25 65 -25 130 -1 45 3 98 7 119 9
40 58 104 91 117 39 16 92 11 127 -13z"/>
<path d="M7751 5828 c-99 -34 -149 -161 -102 -263 27 -59 69 -89 174 -124 106
-36 127 -52 127 -103 0 -48 -35 -80 -98 -86 -41 -4 -52 0 -80 23 -19 16 -36
43 -43 67 -10 40 -11 40 -47 34 -20 -3 -45 -6 -56 -6 -16 0 -17 -5 -12 -37 14
-75 54 -141 104 -171 41 -23 58 -27 127 -27 103 0 152 24 192 92 23 40 28 59
28 118 0 125 -47 177 -209 229 -43 14 -87 33 -97 42 -46 42 0 104 76 104 49 0
89 -27 99 -66 6 -24 10 -26 44 -20 20 3 45 6 55 6 24 0 22 43 -4 97 -30 61
-90 95 -177 99 -37 2 -82 -2 -101 -8z"/>
<path d="M9948 5826 c-80 -29 -132 -85 -165 -179 -27 -79 -25 -263 5 -337 43
-109 116 -168 221 -177 157 -14 265 88 293 277 35 239 -87 431 -273 430 -24
-1 -61 -7 -81 -14z m152 -124 c54 -29 81 -88 87 -186 4 -58 1 -98 -10 -137
-43 -145 -192 -174 -265 -50 -25 42 -27 54 -27 156 0 92 3 117 21 150 41 78
120 106 194 67z"/>
<path d="M11791 5822 c-80 -40 -102 -129 -54 -222 l28 -55 -51 -50 c-95 -94
-99 -228 -9 -318 66 -65 203 -61 276 9 l25 24 34 -35 c19 -19 41 -35 50 -35 8
0 27 20 42 45 l27 45 -40 38 -41 38 21 68 c12 38 19 72 15 75 -3 3 -23 11 -45
17 l-40 12 -15 -36 -15 -36 -34 52 c-19 28 -35 55 -35 60 0 4 14 21 31 38 44
41 59 76 59 132 0 87 -66 152 -155 152 -22 0 -55 -8 -74 -18z m125 -97 c19
-29 14 -60 -17 -99 -17 -22 -24 -25 -36 -15 -21 18 -43 65 -43 93 0 48 69 63
96 21z m-38 -341 c28 -41 52 -79 52 -84 0 -15 -67 -50 -96 -50 -65 1 -105 80
-73 143 13 25 50 67 58 67 3 0 30 -34 59 -76z"/>
<path d="M14198 5831 c-79 -26 -139 -90 -173 -186 -13 -36 -18 -80 -18 -160 0
-164 44 -265 141 -322 41 -24 57 -28 127 -28 94 0 144 22 194 82 56 67 74 133
75 263 1 171 -40 267 -139 326 -50 29 -155 42 -207 25z m153 -134 c58 -38 74
-85 74 -212 0 -99 -3 -114 -25 -154 -75 -132 -237 -93 -270 65 -17 82 -8 183
21 240 41 80 131 108 200 61z"/>
<path d="M16237 5826 c-21 -8 -48 -22 -59 -33 -57 -52 -75 -160 -38 -232 29
-58 70 -86 173 -120 105 -35 127 -53 127 -99 0 -49 -37 -84 -96 -89 -43 -5
-54 -2 -82 22 -18 15 -37 44 -44 66 l-12 40 -50 -6 c-28 -4 -53 -9 -55 -11 -2
-2 1 -28 8 -58 24 -107 92 -166 201 -174 163 -12 270 102 240 258 -5 28 -14
59 -19 69 -23 42 -82 80 -174 110 -52 18 -102 40 -111 50 -41 45 0 101 73 101
51 0 81 -17 97 -56 14 -33 18 -36 46 -30 17 3 42 6 55 6 24 0 25 2 18 37 -19
105 -97 164 -215 163 -25 -1 -62 -7 -83 -14z"/>
<path d="M3000 5485 l0 -345 60 0 60 0 0 145 0 145 33 0 c18 0 42 -7 54 -15
12 -9 54 -74 93 -145 l72 -130 70 0 70 0 -62 118 c-34 64 -77 133 -97 153
l-35 37 34 11 c40 13 82 54 97 94 18 46 13 143 -8 185 -41 79 -79 92 -288 92
l-153 0 0 -345z m321 206 c18 -14 24 -29 24 -60 0 -64 -19 -75 -130 -79 l-95
-4 0 81 0 81 89 0 c72 0 93 -4 112 -19z"/>
<path d="M3572 5558 c3 -263 4 -275 26 -321 32 -63 90 -98 176 -104 108 -9
184 28 220 106 19 43 21 66 24 319 l4 272 -56 0 -56 0 0 -222 c-1 -257 -7
-303 -45 -335 -48 -42 -132 -25 -163 31 -14 26 -17 71 -20 279 l-4 247 -55 0
-55 0 4 -272z"/>
<path d="M4140 5485 l0 -345 60 0 60 0 0 129 0 128 93 5 c109 6 146 22 184 80
22 33 28 55 31 114 5 85 -9 133 -50 180 -40 45 -79 54 -240 54 l-138 0 0 -345z
m270 212 c13 -7 30 -28 38 -48 12 -31 11 -41 -2 -73 -18 -44 -46 -56 -127 -56
l-59 0 0 95 0 95 63 0 c34 0 73 -6 87 -13z"/>
<path d="M5500 5485 l0 -345 200 0 200 0 0 60 0 60 -145 0 -145 0 0 285 0 285
-55 0 -55 0 0 -345z"/>
<path d="M6550 5770 l0 -60 85 0 85 0 0 -285 0 -285 55 0 55 0 0 285 0 285 85
0 85 0 0 60 0 60 -225 0 -225 0 0 -60z"/>
<path d="M7072 5558 c3 -263 4 -275 26 -321 32 -63 90 -98 176 -104 108 -9
184 28 220 106 19 43 21 66 24 319 l4 272 -56 0 -56 0 0 -222 c-1 -257 -7
-303 -45 -335 -48 -42 -132 -25 -163 31 -14 26 -17 71 -20 279 l-4 247 -55 0
-55 0 4 -272z"/>
<path d="M8380 5485 l0 -345 55 0 55 0 0 345 0 345 -55 0 -55 0 0 -345z"/>
<path d="M8600 5485 l0 -345 55 0 55 0 1 258 1 257 52 -255 52 -255 55 -3 54
-3 49 243 c27 134 53 250 57 258 5 8 9 -101 9 -242 l0 -258 50 0 50 0 0 345 0
345 -84 0 -83 0 -21 -97 c-11 -54 -33 -158 -48 -231 -15 -73 -31 -129 -34
-125 -4 5 -22 78 -39 163 -18 85 -39 185 -47 223 l-16 67 -84 0 -84 0 0 -345z"/>
<path d="M9260 5485 l0 -345 55 0 55 0 0 129 0 128 99 5 c116 6 153 23 190 89
28 50 38 146 22 207 -15 55 -63 109 -109 122 -20 5 -99 10 -174 10 l-138 0 0
-345z m269 210 c33 -17 41 -33 41 -83 -1 -67 -38 -92 -134 -92 l-66 0 0 95 0
95 65 0 c38 0 78 -6 94 -15z"/>
<path d="M10400 5485 l0 -345 55 0 55 0 0 145 0 145 34 0 c51 0 75 -26 151
-164 l70 -126 67 0 68 0 -55 111 c-31 61 -74 130 -96 154 l-39 43 24 6 c33 8
83 52 103 90 22 41 22 150 1 191 -24 45 -61 76 -105 86 -21 5 -104 9 -185 9
l-148 0 0 -345z m315 200 c16 -15 25 -36 25 -55 0 -19 -9 -40 -25 -55 -22 -23
-32 -25 -115 -25 l-90 0 0 80 0 80 90 0 c83 0 93 -2 115 -25z"/>
<path d="M10920 5770 l0 -60 85 0 85 0 0 -285 0 -285 55 0 55 0 0 285 0 285
85 0 85 0 0 60 0 60 -225 0 -225 0 0 -60z"/>
<path d="M12450 5485 l0 -345 215 0 215 0 0 60 0 60 -155 0 -155 0 0 90 0 90
140 0 140 0 0 55 0 55 -140 0 -140 0 0 80 0 80 150 0 150 0 0 60 0 60 -210 0
-210 0 0 -345z"/>
<path d="M13011 5693 c40 -76 78 -147 86 -158 19 -28 17 -34 -30 -121 -24 -44
-67 -123 -96 -176 l-52 -98 68 0 69 0 58 110 c31 60 60 112 64 114 4 2 34 -47
67 -110 l60 -114 68 0 c37 0 67 2 67 3 0 2 -43 83 -96 181 l-96 176 84 157
c46 86 85 160 86 165 2 4 -26 8 -61 8 l-65 0 -55 -102 -55 -101 -28 51 c-16
28 -41 74 -56 102 l-28 50 -66 0 -65 0 72 -137z"/>
<path d="M13500 5485 l0 -345 60 0 60 0 0 129 0 128 93 5 c109 6 146 22 184
80 22 33 28 55 31 114 5 85 -9 133 -50 180 -40 45 -79 54 -240 54 l-138 0 0
-345z m270 212 c13 -7 30 -28 38 -48 12 -31 11 -41 -2 -73 -18 -44 -46 -56
-127 -56 l-59 0 0 95 0 95 63 0 c34 0 73 -6 87 -13z"/>
<path d="M14640 5486 l0 -346 55 0 55 0 0 145 0 145 34 0 c52 0 84 -34 156
-169 l65 -121 68 0 c37 0 67 3 67 6 0 18 -119 231 -147 264 l-32 37 41 19 c56
25 88 77 95 153 5 51 2 68 -20 113 -42 86 -60 92 -264 96 l-173 4 0 -346z
m314 203 c20 -16 26 -29 26 -59 0 -62 -32 -80 -141 -80 l-89 0 0 80 0 80 89 0
c74 0 92 -3 115 -21z"/>
<path d="M15170 5770 l0 -60 80 0 80 0 0 -285 0 -285 60 0 60 0 0 285 0 285
80 0 80 0 0 60 0 60 -220 0 -220 0 0 -60z"/>
<path d="M17002 5738 c-17 -51 -63 -194 -102 -318 -39 -124 -75 -238 -80 -253
l-9 -28 61 3 62 3 21 70 21 70 115 3 116 3 22 -76 23 -75 59 0 c41 0 59 4 59
13 0 6 -49 161 -109 342 l-108 330 -61 3 -60 3 -30 -93z m129 -208 l36 -120
-77 0 -78 0 34 113 c19 61 34 115 34 120 0 4 4 7 8 7 4 0 24 -54 43 -120z"/>
<path d="M15680 5205 c0 -63 1 -65 25 -65 20 0 25 -5 25 -25 0 -15 -11 -36
-25 -49 -43 -40 -24 -82 25 -56 37 20 60 86 60 178 l0 82 -55 0 -55 0 0 -65z"/>
<path d="M16650 5205 l0 -65 55 0 55 0 0 65 0 65 -55 0 -55 0 0 -65z"/>
<path d="M17430 5205 l0 -65 55 0 55 0 0 65 0 65 -55 0 -55 0 0 -65z"/>
<path d="M6670 4799 c-35 -14 -68 -48 -93 -94 -32 -59 -32 -212 0 -272 58
-109 187 -134 291 -56 l32 24 0 95 0 94 -80 0 -80 0 0 -35 c0 -34 1 -35 40
-35 39 0 40 -1 40 -33 0 -41 -25 -66 -74 -74 -72 -11 -116 48 -116 157 0 101
38 160 103 160 28 0 78 -39 88 -68 3 -9 15 -10 38 -6 31 6 33 9 27 38 -18 89
-125 141 -216 105z"/>
<path d="M9640 4799 c-71 -29 -110 -109 -110 -225 0 -45 5 -96 11 -115 27 -80
89 -129 162 -129 58 0 128 60 143 123 5 24 2 29 -27 41 l-34 14 -20 -41 c-35
-73 -109 -74 -144 -2 -23 47 -19 174 5 216 37 63 110 62 142 -3 11 -24 16 -26
44 -18 17 5 33 12 36 15 11 10 -33 87 -61 107 -34 24 -110 33 -147 17z"/>
<path d="M8810 4570 l0 -230 35 0 35 0 0 230 0 230 -35 0 -35 0 0 -230z"/>
<path d="M11475 4778 c-4 -13 -36 -113 -71 -223 -35 -111 -64 -204 -64 -208 0
-4 17 -7 39 -7 38 0 39 1 53 53 l15 52 74 3 75 3 18 -56 c17 -54 17 -55 57
-55 21 0 39 3 39 8 0 4 -33 106 -73 227 l-74 220 -40 3 c-36 3 -42 0 -48 -20z
m95 -250 c0 -5 -23 -8 -51 -8 -42 0 -50 3 -45 15 3 9 13 41 22 73 9 31 19 61
22 67 5 8 52 -125 52 -147z"/>
<path d="M12720 4760 c0 -39 1 -40 35 -40 34 0 35 1 35 40 0 39 -1 40 -35 40
-34 0 -35 -1 -35 -40z"/>
<path d="M7618 4759 c-21 -16 -28 -29 -28 -55 0 -27 -4 -34 -20 -34 -16 0 -20
-7 -20 -35 0 -28 4 -35 20 -35 19 0 20 -7 20 -115 0 -102 2 -117 20 -135 37
-37 100 -24 100 20 0 22 -5 29 -22 32 -22 3 -23 8 -26 101 l-3 97 26 0 c22 0
25 4 25 35 0 31 -3 35 -25 35 -24 0 -25 3 -25 55 0 30 -3 55 -7 55 -5 0 -20
-10 -35 -21z"/>
<path d="M10558 4757 c-20 -16 -28 -32 -28 -55 0 -22 -5 -32 -15 -32 -10 0
-15 -11 -15 -35 0 -23 5 -35 14 -35 11 0 15 -24 18 -114 3 -127 16 -156 69
-156 45 0 59 10 59 41 0 24 -4 29 -25 29 l-25 0 0 100 0 100 25 0 c22 0 25 4
25 35 0 31 -3 35 -25 35 -24 0 -25 3 -25 55 0 62 -9 67 -52 32z"/>
<path d="M7340 4667 c-14 -7 -33 -28 -42 -47 l-18 -35 31 -8 c26 -7 34 -5 46
12 24 34 89 23 81 -14 -2 -12 -24 -25 -68 -39 -56 -18 -67 -26 -83 -58 -15
-31 -16 -44 -7 -77 18 -68 74 -90 137 -52 26 16 32 17 37 5 3 -8 19 -14 40
-14 l34 0 -9 38 c-5 20 -9 83 -9 139 0 56 -3 109 -6 118 -15 39 -112 58 -164
32z m84 -248 c-31 -34 -74 -18 -74 28 0 13 1 23 3 23 1 0 20 7 42 14 l40 14 3
-30 c2 -18 -3 -37 -14 -49z"/>
<path d="M7808 4665 c-63 -34 -89 -174 -49 -262 35 -76 123 -97 184 -43 50 44
53 67 10 75 -28 5 -37 2 -52 -16 -13 -16 -24 -20 -43 -16 -22 6 -48 42 -48 67
0 6 40 10 90 10 l90 0 0 43 c-1 116 -94 189 -182 142z m96 -77 c28 -39 21 -48
-39 -48 -60 0 -67 9 -39 48 8 12 26 22 39 22 13 0 31 -10 39 -22z"/>
<path d="M8147 4660 c-30 -24 -37 -25 -37 -5 0 10 -11 15 -35 15 l-35 0 0
-165 0 -165 40 0 40 0 0 118 c0 103 3 121 18 135 25 22 49 21 62 -2 5 -11 10
-72 10 -135 l0 -116 35 0 35 0 0 108 c0 112 12 154 43 160 40 8 47 -14 47
-144 l0 -124 40 0 40 0 0 108 c-1 134 -12 191 -40 214 -31 25 -74 22 -107 -6
l-28 -24 -28 24 c-35 29 -66 30 -100 4z"/>
<path d="M8564 4669 c-20 -10 -54 -58 -54 -77 0 -5 12 -13 26 -16 20 -5 32 -2
46 13 22 25 60 27 78 6 21 -25 5 -40 -58 -58 -40 -11 -67 -25 -81 -43 -68 -87
37 -211 122 -144 30 24 37 25 37 5 0 -10 10 -15 33 -15 l32 0 -3 132 c-4 142
-13 175 -52 195 -30 15 -96 16 -126 2z m106 -199 c0 -60 -69 -94 -92 -45 -14
30 -4 44 45 62 46 17 47 16 47 -17z"/>
<path d="M8999 4665 c-23 -13 -58 -70 -48 -80 2 -2 16 -6 31 -10 21 -5 29 -2
38 14 15 29 65 29 81 0 14 -26 5 -33 -64 -51 -69 -17 -97 -49 -97 -107 0 -83
62 -122 133 -83 32 17 39 18 44 6 3 -8 18 -14 37 -14 l31 0 -3 117 c-4 149
-14 188 -52 208 -36 19 -97 19 -131 0z m104 -216 c-11 -40 -52 -61 -77 -39
-33 27 -14 64 41 79 37 11 46 1 36 -40z"/>
<path d="M9974 4670 c-43 -17 -69 -69 -72 -147 -7 -121 28 -182 110 -190 53
-5 85 11 116 57 l23 35 -36 9 c-31 7 -39 5 -51 -13 -8 -11 -24 -21 -35 -21
-25 0 -59 34 -59 60 0 19 7 20 91 20 l92 0 -6 55 c-3 30 -13 67 -23 83 -31 53
-94 75 -150 52z m78 -72 c9 -7 19 -23 23 -35 6 -22 4 -23 -49 -23 -61 0 -68 9
-40 48 17 25 42 28 66 10z"/>
<path d="M10325 4668 c-11 -6 -26 -18 -32 -26 -11 -14 -13 -13 -13 6 0 18 -6
22 -35 22 l-35 0 0 -165 0 -165 35 0 35 0 0 105 c0 114 11 152 47 161 46 12
53 -8 53 -142 l0 -124 40 0 40 0 0 113 c-1 131 -11 185 -41 210 -24 19 -64 22
-94 5z"/>
<path d="M10790 4658 c-17 -18 -20 -19 -20 -5 0 13 -9 17 -35 17 l-35 0 0
-165 0 -165 33 0 34 0 6 110 c8 131 17 155 58 146 26 -5 29 -3 35 30 5 26 3
39 -7 45 -23 15 -47 10 -69 -13z"/>
<path d="M10973 4664 c-53 -27 -78 -77 -78 -159 0 -83 25 -133 79 -159 102
-48 195 29 196 162 0 127 -98 205 -197 156z m97 -74 c56 -56 28 -190 -41 -190
-37 0 -59 39 -59 105 0 48 4 66 20 83 26 27 54 28 80 2z"/>
<path d="M11846 4659 c-21 -17 -26 -18 -26 -5 0 12 -10 16 -35 16 l-35 0 0
-165 0 -165 35 0 35 0 0 104 c0 116 9 151 40 161 42 13 50 -8 50 -141 l0 -124
40 0 40 0 0 118 c0 103 3 121 18 135 52 47 72 7 72 -144 l0 -109 36 0 35 0 -3
146 c-3 146 -3 146 -31 170 -34 29 -76 31 -111 3 l-26 -20 -26 20 c-15 12 -39
21 -54 21 -15 0 -39 -9 -54 -21z"/>
<path d="M12268 4665 c-63 -34 -89 -174 -49 -262 35 -76 123 -97 184 -43 50
44 53 67 10 75 -28 5 -37 2 -52 -16 -13 -16 -24 -20 -43 -16 -22 6 -48 42 -48
67 0 6 40 10 90 10 l90 0 0 43 c-1 116 -94 189 -182 142z m96 -77 c28 -39 21
-48 -39 -48 -60 0 -67 9 -39 48 8 12 26 22 39 22 13 0 31 -10 39 -22z"/>
<path d="M12600 4660 c-16 -16 -20 -17 -20 -5 0 10 -11 15 -35 15 l-35 0 0
-165 0 -165 34 0 34 0 3 113 c4 125 14 150 58 145 21 -3 27 2 35 30 7 26 6 36
-5 43 -23 14 -48 10 -69 -11z"/>
<path d="M12913 4661 c-18 -11 -38 -33 -46 -48 -37 -74 -26 -191 23 -247 25
-28 34 -31 83 -31 62 0 91 18 114 74 16 38 17 37 -22 45 -26 5 -32 2 -47 -24
-21 -37 -60 -41 -82 -8 -22 31 -21 136 0 166 26 38 63 26 91 -26 1 -2 15 -1
32 3 40 8 41 34 3 76 -37 41 -102 50 -149 20z"/>
<path d="M13199 4665 c-23 -13 -58 -70 -48 -80 2 -2 16 -6 31 -10 21 -5 29 -2
38 14 15 29 65 29 81 0 14 -26 5 -33 -64 -51 -69 -17 -97 -49 -97 -107 0 -83
62 -122 133 -83 32 17 39 18 44 6 3 -8 18 -14 37 -14 l31 0 -3 117 c-4 149
-14 188 -52 208 -36 19 -97 19 -131 0z m104 -216 c-11 -40 -52 -61 -77 -39
-33 27 -14 64 41 79 37 11 46 1 36 -40z"/>
<path d="M6972 4524 c3 -146 3 -146 31 -170 34 -29 76 -31 110 -4 30 24 37 25
37 5 0 -10 11 -15 35 -15 l35 0 0 165 0 165 -40 0 -40 0 0 -118 c0 -103 -3
-121 -18 -135 -10 -10 -26 -17 -34 -17 -34 0 -43 31 -47 152 l-3 118 -35 0
-34 0 3 -146z"/>
<path d="M12720 4505 l0 -165 35 0 35 0 0 165 0 165 -35 0 -35 0 0 -165z"/>
<path d="M9240 4385 c0 -38 3 -45 20 -45 26 0 26 -24 -1 -49 -15 -14 -18 -24
-12 -35 8 -14 11 -14 30 -1 26 18 43 72 43 133 l0 42 -40 0 -40 0 0 -45z"/>
</g>
</svg>
